<svg xmlns="http://www.w3.org/2000/svg" width="184.6" height="48.26" viewBox="0 0 184.6 48.26"><defs><style>.a{fill:gray;}</style></defs><title>foodics-arabic-logo-grey-2</title><path class="a" d="M183.77,17.87a10.34,10.34,0,0,0-5.8-5.8,11.51,11.51,0,0,0-4.37-.83h-6.07a11.52,11.52,0,0,0-4.38.83,10.37,10.37,0,0,0-5.82,5.8,11.43,11.43,0,0,0-.83,4.4v4a11.38,11.38,0,0,0,.83,4.42c.12.28.25.55.38.81h-8.85V14.33a3.09,3.09,0,0,0-3.09-3.09H132.24a11.33,11.33,0,0,0-4.38.83,10.37,10.37,0,0,0-5.82,5.8,11.63,11.63,0,0,0-.84,4.4v4a11.68,11.68,0,0,0,.84,4.41,10.4,10.4,0,0,0,5.82,5.8,11.51,11.51,0,0,0,4.38.82H143a5.89,5.89,0,0,1-.37,2,4.65,4.65,0,0,1-1,1.61A4.89,4.89,0,0,1,140,42a5.81,5.81,0,0,1-2.14.37H125v5.86h12.79a11.41,11.41,0,0,0,4.39-.82,10.41,10.41,0,0,0,5.81-5.8,11.54,11.54,0,0,0,.83-4.3H173.6a11.69,11.69,0,0,0,4.37-.82,10.42,10.42,0,0,0,5.8-5.8,11.56,11.56,0,0,0,.82-4.42v-4a11.51,11.51,0,0,0-.82-4.41M130.1,31.1a4.73,4.73,0,0,1-1.62-1,4.61,4.61,0,0,1-1-1.6,5.88,5.88,0,0,1-.37-2.16h0v-4h0a5.83,5.83,0,0,1,.37-2.15,4.65,4.65,0,0,1,1-1.61,4.89,4.89,0,0,1,1.62-1,5.81,5.81,0,0,1,2.14-.37H143V31.48H132.24a5.79,5.79,0,0,1-2.14-.38m48.63-4.8a5.88,5.88,0,0,1-.37,2.16,4.74,4.74,0,0,1-1,1.61,4.86,4.86,0,0,1-1.62,1,5.82,5.82,0,0,1-2.14.38h-6a5.79,5.79,0,0,1-2.14-.38,4.86,4.86,0,0,1-1.62-1,4.74,4.74,0,0,1-1-1.61,5.68,5.68,0,0,1-.37-2.16v-4a5.63,5.63,0,0,1,.37-2.15,4.65,4.65,0,0,1,1-1.61,4.89,4.89,0,0,1,1.62-1,5.78,5.78,0,0,1,2.14-.37h6.07a5.92,5.92,0,0,1,2.12.37,4.51,4.51,0,0,1,2.64,2.65,5.84,5.84,0,0,1,.38,2.15Z" transform="translate(0 0)"></path><path class="a" d="M113,14.36a10.86,10.86,0,0,0-3.5-2.3,11.57,11.57,0,0,0-4.39-.83H92.29v5.86h12.78a5.79,5.79,0,0,1,2.14.38,4.55,4.55,0,0,1,1.62,1,4.47,4.47,0,0,1,1,1.6,5.89,5.89,0,0,1,.38,2.16v4a5.87,5.87,0,0,1-.38,2.15,4.6,4.6,0,0,1-1,1.61,4.84,4.84,0,0,1-1.62,1,6,6,0,0,1-2.14.37H92.29v5.86h12.78a11.57,11.57,0,0,0,4.39-.83,10.38,10.38,0,0,0,5.81-5.8,11.44,11.44,0,0,0,.84-4.4v-4a11.49,11.49,0,0,0-.84-4.41,10.52,10.52,0,0,0-2.31-3.5" transform="translate(0 0)"></path><path class="a" d="M168.16,5.18a2.18,2.18,0,0,0,.77.5,2.6,2.6,0,0,0,1,.18h1.32a2.6,2.6,0,0,0,1-.18,2.18,2.18,0,0,0,.77-.5,2.49,2.49,0,0,0,.5-.77,2.6,2.6,0,0,0,.18-1v-1a2.64,2.64,0,0,0-.18-1,2.49,2.49,0,0,0-.5-.77,2.49,2.49,0,0,0-.77-.5,2.6,2.6,0,0,0-1-.18h-1.32a2.6,2.6,0,0,0-1,.18,2.49,2.49,0,0,0-.77.5,2.18,2.18,0,0,0-.5.77,2.45,2.45,0,0,0-.19,1v1a2.42,2.42,0,0,0,.19,1,2.18,2.18,0,0,0,.5.77" transform="translate(0 0)"></path><path class="a" d="M2.48,10.85h.58c.3,0,.4.12.45.4a3.3,3.3,0,0,0,.09.63h.59a1.5,1.5,0,0,1-.11-.63c0-.27-.1-.55-.39-.62h0A.65.65,0,0,0,4.11,10a.73.73,0,0,0-.73-.74H1.89v2.67h.59Zm0-1.18h.64c.26,0,.41.12.41.37a.36.36,0,0,1-.41.39H2.48Z" transform="translate(0 0)"></path><path class="a" d="M2.94,13.53A2.94,2.94,0,1,0,0,10.59a2.94,2.94,0,0,0,2.94,2.94m0-5.25A2.32,2.32,0,1,1,.62,10.59h0A2.32,2.32,0,0,1,2.94,8.28" transform="translate(0 0)"></path><path class="a" d="M87,21.64a10.37,10.37,0,0,0-5.82-5.8A11.52,11.52,0,0,0,76.76,15H74L84.71,4.28,80.56.13,65.68,15,64,16.73l4.15,4.14h8.64a5.75,5.75,0,0,1,2.14.38,4.55,4.55,0,0,1,1.62,1,4.47,4.47,0,0,1,1,1.6,5.89,5.89,0,0,1,.38,2.16v.25a5.89,5.89,0,0,1-.38,2.16,4.47,4.47,0,0,1-1,1.6,4.55,4.55,0,0,1-1.62,1,5.75,5.75,0,0,1-2.14.38H63.68a5.73,5.73,0,0,1-2.13-.38,4.55,4.55,0,0,1-1.62-1,4.64,4.64,0,0,1-1-1.6,6.1,6.1,0,0,1-.37-2.16V11.24H52.65V26.3a5.79,5.79,0,0,1-.38,2.14,4.76,4.76,0,0,1-1,1.62,4.6,4.6,0,0,1-1.61,1,6.38,6.38,0,0,1-4.31,0,4.47,4.47,0,0,1-1.6-1,4.55,4.55,0,0,1-1-1.62,5.79,5.79,0,0,1-.38-2.14V15H36.44V26.3h0a6,6,0,0,1-.37,2.14,4.94,4.94,0,0,1-1,1.62,4.51,4.51,0,0,1-1.61,1,6.35,6.35,0,0,1-4.3,0,4.51,4.51,0,0,1-1.61-1,4.69,4.69,0,0,1-1-1.62,5.78,5.78,0,0,1-.37-2.14V15H20.24V37.22h0a5.79,5.79,0,0,1-.38,2.14,4.55,4.55,0,0,1-1,1.62,4.47,4.47,0,0,1-1.6,1,5.89,5.89,0,0,1-2.16.38H11A5.8,5.8,0,0,1,8.88,42a4.51,4.51,0,0,1-1.61-1,4.69,4.69,0,0,1-1-1.62,5.78,5.78,0,0,1-.37-2.14V20.36H0V37.22a11.37,11.37,0,0,0,.82,4.39,10.41,10.41,0,0,0,5.8,5.81,11.49,11.49,0,0,0,4.41.84h4a11.44,11.44,0,0,0,4.4-.84,10.38,10.38,0,0,0,5.8-5.81,11.38,11.38,0,0,0,.83-4.39V36.15c.25.12.5.24.77.35a12,12,0,0,0,8.81,0,10.67,10.67,0,0,0,3.5-2.31c.07-.07.13-.14.2-.2l.19.2a10.67,10.67,0,0,0,3.5,2.31,12,12,0,0,0,8.81,0,10.67,10.67,0,0,0,3.5-2.31c.07-.07.13-.14.2-.2l.22.23a10.46,10.46,0,0,0,3.5,2.29,11.52,11.52,0,0,0,4.38.83H76.75a11.57,11.57,0,0,0,4.39-.83A10.38,10.38,0,0,0,87,30.71a11.44,11.44,0,0,0,.84-4.4v-.26A11.49,11.49,0,0,0,87,21.64" transform="translate(0 0)"></path></svg>